<?xml version="1.0" encoding="utf-8"?><svg viewBox="0 0 25 24" xmlns="http://www.w3.org/2000/svg" xmlns:xlink="http://www.w3.org/1999/xlink"><style>:root>svg{display:none}:root>svg:target{display:block}</style><svg fill="none" viewBox="0 0 17 17" id="close" xmlns="http://www.w3.org/2000/svg"><path d="M10.057 8.5l6.62-6.62A1.1 1.1 0 1015.12.323L8.5 6.943 1.88.323A1.1 1.1 0 10.323 1.88l6.62 6.62-6.62 6.62A1.1 1.1 0 001.102 17c.282 0 .564-.108.778-.323l6.62-6.62 6.62 6.62a1.098 1.098 0 001.557 0 1.1 1.1 0 000-1.557l-6.62-6.62z" fill="#CCC"/></svg><svg fill="none" viewBox="0 0 11 24" id="facebook" xmlns="http://www.w3.org/2000/svg"><path d="M3.625 1.236C4.546.346 5.85.042 7.085.007c1.304-.011 2.607-.006 3.91-.006.006 1.404.006 2.802 0 4.205H8.47c-.532-.035-1.081.378-1.178.92-.012.938-.006 1.875-.006 2.813 1.235.006 2.47 0 3.705.006a53.09 53.09 0 01-.452 4.047c-1.092.012-2.184 0-3.276.006-.012 4 .006 7.996-.006 11.996C5.632 24 4.014 23.99 2.39 24c-.029-4 0-8.001-.017-12.002-.79-.006-1.584.006-2.373-.006.006-1.345 0-2.69 0-4.03.79-.011 1.584 0 2.373-.006.023-1.304-.023-2.614.023-3.919.086-1.042.469-2.085 1.23-2.8z" fill="#000"/></svg><svg fill="none" viewBox="0 0 25 24" id="linkedin" xmlns="http://www.w3.org/2000/svg"><path d="M25 14.714V24h-5.358v-8.664c0-2.176-.776-3.661-2.715-3.661-1.48 0-2.361 1-2.75 1.97-.14.345-.177.827-.177 1.311V24H8.64s.072-14.674 0-16.194h5.359v2.296c-.011.017-.025.035-.035.052h.035v-.052c.712-1.102 1.984-2.676 4.83-2.676C22.356 7.426 25 9.74 25 14.714zM3.033 0C1.199 0 0 1.208 0 2.798c0 1.554 1.165 2.799 2.962 2.799h.036c1.869 0 3.031-1.245 3.031-2.8C5.994 1.209 4.867 0 3.033 0zM.318 24h5.358V7.806H.318V24z" fill="#000"/></svg><svg viewBox="0 0 6 12" id="next" xmlns="http://www.w3.org/2000/svg"><path d="M6 6c0 .215-.072.43-.216.594l-4.526 5.16a.675.675 0 01-1.042 0 .926.926 0 010-1.189L4.22 6 .216 1.435a.926.926 0 010-1.189.675.675 0 011.042 0l4.526 5.16C5.928 5.57 6 5.785 6 6z"/></svg><svg viewBox="0 0 6 12" id="prev" xmlns="http://www.w3.org/2000/svg"><path d="M0 6c0-.215.072-.43.216-.594L4.742.246a.675.675 0 011.042 0 .926.926 0 010 1.189L1.78 6l4.005 4.565a.926.926 0 010 1.189.675.675 0 01-1.042 0L.216 6.594A.901.901 0 010 6z"/></svg></svg>